<?xml version="1.0" standalone="no"?><!DOCTYPE svg PUBLIC "-//W3C//DTD SVG 1.1//EN" "http://www.w3.org/Graphics/SVG/1.1/DTD/svg11.dtd"><svg t="1616399637706" class="icon" viewBox="0 0 1024 1024" version="1.1" xmlns="http://www.w3.org/2000/svg" p-id="3491" xmlns:xlink="http://www.w3.org/1999/xlink" width="200" height="200"><defs><style type="text/css"></style></defs><path d="M486.4 1024a486.4 486.4 0 1 1 0-972.8 486.4 486.4 0 0 1 0 972.8z m-1.1776-207.36l2.3552 0.768-0.9728 0.768-1.3824-1.536z m14.08-78.7456l-12.8 11.9296a3601.5104 3601.5104 0 0 1-17.664-16.6912 2682.2144 2682.2144 0 0 0-24.4224-23.04l-35.4816-32.6656-0.1024-0.1024-32.512-29.9008-16.7936-15.872-0.1024-0.1024c-13.312-12.6976-19.456-18.432-27.3408-25.4976-27.3408-24.4224-40.7552-37.888-52.8384-54.1184a117.76 117.76 0 0 1-20.5312-47.8208A355.9936 355.9936 0 0 1 256 488.3968V466.944l0.512-3.1744c1.024-6.7584 1.536-9.6256 2.2016-12.8 4.9152-24.064 14.7968-43.776 30.0032-60.1088a114.688 114.688 0 0 1 22.9888-18.8416c12.288-7.8336 24.6784-12.1344 37.12-13.1072 10.3424-0.8192 21.8112-0.1536 33.5872 1.8944 17.7152 3.072 33.5872 11.9296 48.2304 27.136 1.536 1.6384 3.2256 3.4816 5.2224 5.7856l11.8784 13.7216 38.2464 43.52 38.5024-43.3152c2.2016-2.4576 8.2944-9.5744 9.216-10.6496a48.9984 48.9984 0 0 1 2.6112-2.7648l1.3312-1.28c9.0112-8.5504 13.4656-12.544 18.0736-16.0256 13.312-9.8816 27.0848-15.616 42.1376-17.5104 18.0736-2.2528 33.0752-0.9728 46.2848 3.9936 21.1456 7.936 37.7344 20.7872 50.4832 39.5776 9.0112 13.2096 14.7456 25.5488 17.5616 38.0416l4.096 17.6128 0.1024 0.512 0.4096 1.7408v28.8768c-0.4096 2.048-0.768 4.096-0.9728 6.2464a118.6816 118.6816 0 0 1-10.752 37.632c-6.7072 14.8992-17.4592 28.928-34.2528 45.2096-9.6256 9.3184-17.664 16.7424-36.1984 33.536a2359.7056 2359.7056 0 0 0-45.3632 42.1376c-11.008 10.4448-15.872 15.0528-21.9136 20.6848l-34.7136 31.9488-0.1536 0.1536-33.1776 30.5152zM486.1952 373.76c-24.576-23.6544-36.5568-35.9424-35.84-36.7616a132.096 132.096 0 0 0-59.1872-26.5216 187.1872 187.1872 0 0 0-46.336-2.5088 131.7888 131.7888 0 0 0-60.5696 20.9408 165.888 165.888 0 0 0-33.0752 27.136 172.544 172.544 0 0 0-42.6496 84.8384c-1.536 7.2704-2.5088 14.6944-3.7376 22.016v29.8496c1.2288 7.1168 2.304 14.336 3.7376 21.4016 5.0688 25.2416 14.7456 48.3328 29.6448 68.3008 17.408 23.3984 38.4512 42.7008 59.7504 61.696 14.848 13.312 29.0304 27.3408 43.6224 40.9088 22.6304 20.9408 45.4144 41.6768 68.0448 62.6176 15.0528 13.9776 29.7984 28.3136 44.8512 42.2912 9.0112 8.448 18.3296 16.5888 27.4432 24.9344 1.28 1.1776 2.2016 2.8672 3.328 4.352h2.3552c15.5136-14.592 30.9248-29.2864 46.5408-43.7248 22.6304-20.992 45.4144-41.6768 68.0448-62.6688 15.0528-13.9776 29.7984-28.3136 44.8512-42.2912 19.7632-18.3808 40.0896-36.0448 59.4944-54.8864 18.0224-17.5104 34.4576-36.864 45.2608-60.8768 7.68-16.896 13.2096-34.7648 15.0016-53.76 0.1024-0.6144 0.8192-1.2288 1.2288-1.8432v-44.032l-5.888-25.3952a162.5088 162.5088 0 0 0-25.1392-55.5008 153.856 153.856 0 0 0-74.8032-58.6752c-22.8864-8.6016-46.6432-9.8816-70.7072-6.8608a138.3936 138.3936 0 0 0-68.6592 29.0816c0.512 0.6144-11.6736 12.5952-36.608 35.9424z" p-id="3492" fill="#BFCBD9"></path></svg>