<?xml version="1.0" standalone="no"?><!DOCTYPE svg PUBLIC "-//W3C//DTD SVG 1.1//EN" "http://www.w3.org/Graphics/SVG/1.1/DTD/svg11.dtd"><svg t="1616399831768" class="icon" viewBox="0 0 1024 1024" version="1.1" xmlns="http://www.w3.org/2000/svg" p-id="5358" xmlns:xlink="http://www.w3.org/1999/xlink" width="200" height="200"><defs><style type="text/css"></style></defs><path d="M706.37037 709.063111v95.668148a77.027556 77.027556 0 0 1-77.046518 77.046519H413.639111a77.027556 77.027556 0 0 1-77.046518-77.046519v-95.668148C226.057481 645.12 151.703704 525.596444 151.703704 388.740741 151.703704 184.50963 317.25037 18.962963 521.481481 18.962963S891.259259 184.50963 891.259259 388.740741a46.212741 46.212741 0 1 1-92.444444 0c0-153.163852-124.169481-277.333333-277.333334-277.333334S244.148148 235.576889 244.148148 388.740741 368.31763 666.074074 521.481481 666.074074c79.644444 0.113778 155.496296-34.133333 208.080593-93.980444a46.231704 46.231704 0 0 1 69.328593 61.155555 370.782815 370.782815 0 0 1-92.520297 75.794963z m-92.444444 37.793185c-30.208 7.774815-61.25037 11.681185-92.444445 11.662223-31.914667 0-62.900148-4.058074-92.444444-11.64326v42.458074h184.888889v-42.477037zM459.851852 1005.037037a46.212741 46.212741 0 1 1 0-92.444444h130.958222a46.212741 46.212741 0 1 1 0 92.444444H459.851852zM521.481481 157.620148a46.231704 46.231704 0 0 1 0 92.463408 138.486519 138.486519 0 0 0-116.091259 62.78637 46.231704 46.231704 0 1 1-77.330963-50.650074 230.912 230.912 0 0 1 193.422222-104.599704z" fill="#BFCBD9" p-id="5359"></path></svg>