<?xml version="1.0" standalone="no"?><!DOCTYPE svg PUBLIC "-//W3C//DTD SVG 1.1//EN" "http://www.w3.org/Graphics/SVG/1.1/DTD/svg11.dtd"><svg t="1616399921917" class="icon" viewBox="0 0 1024 1024" version="1.1" xmlns="http://www.w3.org/2000/svg" p-id="8886" xmlns:xlink="http://www.w3.org/1999/xlink" width="200" height="200"><defs><style type="text/css"></style></defs><path d="M512 1024C793.6 1024 1024 793.6 1024 512s-230.4-512-512-512-512 230.4-512 512S230.4 1024 512 1024z m19.2-950.4c227.2 9.59999999 409.6 192 419.2 419.2l-147.2 0c-9.6-147.2-128-265.6-272-272l0-147.2z m-1e-8 220.8c105.6 9.6 192 92.8 201.60000001 201.60000001l-147.2 0c-6.4-25.6-25.6-44.8-51.20000001-51.20000001l0-150.4z m0 288c25.6-6.4 44.8-25.6 51.20000001-51.20000001L729.6 531.19999999c-9.6 105.6-92.8 192-201.60000001 201.60000001 3.2-3.2 3.2-150.4 3.2-150.4z m1e-8 220.8c147.2-9.6 265.6-128 272-272L950.4 531.2c-9.59999999 227.2-192 409.6-419.2 419.2l0-147.2z m-38.39999999-73.6c-19.2-3.2-38.4-6.4-57.60000001-12.8-6.4 25.6-19.2 48-41.6 64 28.8 12.8 64 22.39999999 96 22.4L489.6 950.4c-105.6-3.2-201.6-44.8-275.2-112l51.2-54.4c-9.6-6.4-19.2-16-28.8-25.6L192 812.8c-70.4-73.6-115.2-172.8-118.4-281.6l147.2 0c3.2 35.2 9.6 67.20000001 22.4 96 16-19.2 38.4-35.2 64-41.6-6.4-19.2-9.6-35.2-12.80000001-57.6l147.20000001-1e-8c3.2 9.6 6.4 16 12.8 22.40000001l-54.4 54.4c9.6 6.4 16 16 25.6 28.8L480 576c3.2 3.2 9.6 3.2 12.80000001 3.2L492.80000001 729.6c3.2 0 0 0 0 0z m0-288c-25.6 6.4-48 25.6-54.40000001 54.40000001l-147.2 0c9.6-105.6 92.8-192 201.60000001-201.60000001l0 147.2z m-1e-8-368l0 147.2c-147.2 9.6-265.6 128-272 272l-147.2 0c9.59999999-227.2 192-409.6 419.2-419.2z m-163.2 547.2c41.6 0 73.6 32 73.6 73.6s-32 73.6-73.6 73.6S256 736 256 694.4s35.2-73.6 73.6-73.6z" p-id="8887" fill="#BFCBD9"></path></svg>