<?xml version="1.0" standalone="no"?><!DOCTYPE svg PUBLIC "-//W3C//DTD SVG 1.1//EN" "http://www.w3.org/Graphics/SVG/1.1/DTD/svg11.dtd"><svg class="icon" width="200px" height="200.00px" viewBox="0 0 1024 1024" version="1.1" xmlns="http://www.w3.org/2000/svg"><path fill="#707070" d="M394.971429 307.2h80.457142v409.6H394.971429v51.2h234.057142v-51.2H548.571429V307.2h80.457142v-51.2H394.971429zM914.285714 1024h-804.571428C51.2 1024 0 972.8 0 914.285714v-804.571428C0 51.2 51.2 0 109.714286 0h804.571428c58.514286 0 109.714286 51.2 109.714286 109.714286v804.571428c0 58.514286-51.2 109.714286-109.714286 109.714286zM109.714286 73.142857c-21.942857 0-36.571429 14.628571-36.571429 36.571429v804.571428c0 21.942857 14.628571 36.571429 36.571429 36.571429h804.571428c21.942857 0 36.571429-14.628571 36.571429-36.571429v-804.571428c0-21.942857-14.628571-36.571429-36.571429-36.571429h-804.571428z" /></svg>