<?xml version="1.0" standalone="no"?><!DOCTYPE svg PUBLIC "-//W3C//DTD SVG 1.1//EN" "http://www.w3.org/Graphics/SVG/1.1/DTD/svg11.dtd"><svg t="1616399530715" class="icon" viewBox="0 0 1024 1024" version="1.1" xmlns="http://www.w3.org/2000/svg" p-id="2409" xmlns:xlink="http://www.w3.org/1999/xlink" width="200" height="200"><defs><style type="text/css"></style></defs><path d="M767.943959 298.82545a298.601285 298.601285 0 1 0-465.178145 247.62578 426.573265 426.573265 0 0 0-255.943959 341.258612A44.576906 44.576906 0 0 0 79.454709 938.685347a42.657326 42.657326 0 0 0 50.762219-39.031454A341.258612 341.258612 0 0 1 469.342674 597.426735a298.601285 298.601285 0 0 0 298.601285-298.601285zM469.342674 512.112082a213.286632 213.286632 0 1 1 213.286632-213.286632 213.286632 213.286632 0 0 1-213.286632 213.286632zM975.898426 562.447727a63.98599 63.98599 0 0 0-73.797175-61.853123l-132.237712 17.916077a65.26571 65.26571 0 0 0-41.16432 22.608383l-196.223702 234.615296a87.874093 87.874093 0 0 0 10.664331 123.279673l103.23073 86.594373a87.020946 87.020946 0 0 0 56.094385 21.328663h7.678319a85.314653 85.314653 0 0 0 59.50697-30.926561l196.436988-234.615296a63.98599 63.98599 0 0 0 15.143351-45.643339zM703.957969 919.276263a2.55944 2.55944 0 0 1-3.199299 0L597.314653 833.108464a2.986013 2.986013 0 0 1 0-3.1993l191.957969-228.00341 102.377584-13.863631 4.265732 103.23073z" p-id="2410" fill="#BFCBD9"></path><path d="M799.297094 633.898749a42.657326 42.657326 0 1 0 60.14683-5.118879 42.657326 42.657326 0 0 0-60.14683 5.118879z" p-id="2411" fill="#BFCBD9"></path></svg>