<?xml version="1.0" standalone="no"?><!DOCTYPE svg PUBLIC "-//W3C//DTD SVG 1.1//EN" "http://www.w3.org/Graphics/SVG/1.1/DTD/svg11.dtd"><svg class="icon" width="200px" height="160.13px" viewBox="0 0 1279 1024" version="1.1" xmlns="http://www.w3.org/2000/svg"><path fill="#707070" d="M397.852814 462.499278h583.665224v117.471862h-583.665224z"  /><path fill="#707070" d="M714.066378 724.409812H107.497835V108.975469h956.767677V627.994228a377.904762 377.904762 0 0 1 110.822511 57.997114V0H0v833.75469h576.277056a1055.030303 1055.030303 0 0 1 137.789322-109.344878z"  /><path fill="#707070" d="M966.002886 659.763348c-114.147186 0-202.805195 69.448773-312.150072 181.748918 93.829726 96.046176 172.883117 181.748918 312.150072 181.748917s241.593074-108.236652 312.150072-179.532467c-73.881674-83.486291-174.36075-184.704185-312.150072-184.704185m0 311.041847a129.662338 129.662338 0 1 1 124.860029-129.662338 127.445887 127.445887 0 0 1-124.860029 129.662338"  /><path fill="#707070" d="M966.002886 796.075036a46.176046 46.176046 0 0 1 10.712843-29.552669 58.366522 58.366522 0 0 0-10.712843 0 73.881674 73.881674 0 1 0 73.881674 73.881673 94.199134 94.199134 0 0 0 0-9.974026 44.329004 44.329004 0 0 1-73.881674-36.940837M199.849928 462.499278h117.471861v117.471862H199.849928zM397.852814 243.440115h583.665224v117.471862h-583.665224zM199.849928 243.440115h117.471861v117.471862H199.849928z"  /></svg>